:SAMPLES-PER-SECOND 30
:FULLY-SPECIFIED
:DEGREES
38
root  -0.34804 38.7287 -2.09809 -179.554 -65.3467 176.988
RightUpLeg  -23.9534 -9.31571 -5.04699
RightLeg  5.9935 -6.4919 2.64917
RightFoot  0.0243923 -0.550841 5.5495
RightToes  0.00048216 0.542163 -0.142577
Spine  14.5626 -3.09277 -6.10582
Spine1  5.02183 -5.67368 6.7147
HEad  5.62473 13.9169 -9.4324
LeftShoulder1  6.27196 -9.90766 -40.4746
LeftArm  17.7571 -5.55839 -43.5778
LeftForeArm  46.2928 -38.6785 -6.1333
LeftHand  -0.25398 0.0180481 5.50724
RightShoulder  4.26782 8.03569 31.035
RightArm  -0.797553 -30.4759 45.393
RightForeArm  24.2775 13.1993 6.68246
RightHand  -0.550771 1.05034 -10.0477
LeftUpLeg  17.606 7.82863 2.42277
LeftLeg  9.62227 23.0955 -2.2079
LeftFoot  -21.4849 -0.801511 -10.463
LeftToes  1.06243e-005 4.65856e-005 -8.18505e-006
39
root  -1.33278 38.5014 -2.73469 179.259 -65.5545 178.515
RightUpLeg  -25.2437 -11.754 -3.06655
RightLeg  9.8311 -5.29943 1.52795
RightFoot  2.2853 -0.479485 4.15579
RightToes  0.00048216 0.542163 -0.142577
Spine  15.3617 -3.34555 -5.46002
Spine1  4.91294 -6.22607 7.97362
HEad  4.90489 14.1631 -10.1845
LeftShoulder1  6.16292 -9.81095 -40.0223
LeftArm  14.8641 -6.54204 -44.1843
LeftForeArm  41.3018 -41.2713 -7.1551
LeftHand  -0.25398 0.0180481 5.50724
RightShoulder  4.17229 7.84151 30.8237
RightArm  -3.81371 -28.706 43.0024
RightForeArm  23.544 12.8699 6.24494
RightHand  -0.524735 0.868694 -9.85632
LeftUpLeg  19.3406 8.16102 3.92183
LeftLeg  9.77093 21.6925 -1.99359
LeftFoot  -21.7979 -0.95582 -11.838
LeftToes  1.06243e-005 4.65856e-005 -8.18505e-006
40
root  -2.42754 38.3219 -3.45357 177.199 -65.8119 -178.663
RightUpLeg  -27.0587 -15.7371 0.259382
RightLeg  14.5275 -2.441 0.268237
RightFoot  4.89729 -0.408773 3.08967
RightToes  0.00048216 0.542163 -0.142577
Spine  15.7276 -3.72882 -3.47102
Spine1  4.73056 -6.51065 8.41802
HEad  4.36517 14.1119 -10.7047
LeftShoulder1  6.15875 -9.88997 -39.7348
LeftArm  12.1122 -6.92993 -44.3698
LeftForeArm  37.1261 -42.4629 -7.7801
LeftHand  -0.25398 0.0180481 5.50724
RightShoulder  4.09644 7.67573 30.6891
RightArm  -7.01164 -27.2154 40.7914
RightForeArm  19.5948 13.5264 5.61648
RightHand  -0.525594 0.282485 -10.8017
LeftUpLeg  20.5004 9.43753 6.41878
LeftLeg  10.8707 19.3409 -1.16575
LeftFoot  -21.5079 -1.04474 -13.1251
LeftToes  1.06243e-005 4.65856e-005 -8.18505e-006
41
root  -3.6068 38.1676 -4.22353 174.263 -65.5604 -175.315
RightUpLeg  -28.2162 -17.8351 2.9028
RightLeg  19.5618 -0.0387491 -0.361194
RightFoot  5.2575 -0.327298 2.48365
RightToes  0.00048216 0.542163 -0.142577
Spine  16.4064 -4.17588 -0.502995
Spine1  4.64229 -6.47318 7.97611
HEad  3.92414 14.2355 -11.1436
LeftShoulder1  6.23439 -10.0415 -39.7775
LeftArm  8.99336 -6.50186 -43.7783
LeftForeArm  35.7805 -43.2465 -8.11762
LeftHand  -0.25398 0.0180481 5.50724
RightShoulder  4.1194 7.74839 30.6558
RightArm  -10.1696 -25.4755 38.7568
RightForeArm  13.6822 14.5545 5.15514
RightHand  -0.632536 0.539495 -12.428
LeftUpLeg  21.8806 12.529 10.0098
LeftLeg  12.9745 14.6565 0.303642
LeftFoot  -20.5911 -1.24568 -16.8941
LeftToes  1.06243e-005 4.65856e-005 -8.18505e-006
42
root  -4.80502 38.0679 -5.02034 171.574 -64.7513 -172.679
RightUpLeg  -27.9427 -17.1399 3.73351
RightLeg  24.1627 0.278229 -0.0821378
RightFoot  2.92587 -0.190736 1.66434
RightToes  0.00048216 0.542163 -0.142577
Spine  17.3952 -4.59963 2.50946
Spine1  4.87212 -6.23783 7.19107
HEad  3.89411 14.6938 -11.5909
LeftShoulder1  6.30978 -10.1362 -39.9993
LeftArm  5.99694 -5.31276 -42.5668
LeftForeArm  36.0126 -43.5004 -8.1849
LeftHand  -0.25398 0.0180481 5.50724
RightShoulder  4.23546 8.04336 30.7268
RightArm  -12.9451 -22.9661 36.8753
RightForeArm  8.4074 15.189 4.95795
RightHand  -0.824891 1.59897 -13.853
LeftUpLeg  22.6793 16.111 13.4538
LeftLeg  16.9269 9.99387 2.78466
LeftFoot  -17.7808 -1.12711 -22.0442
LeftToes  1.06243e-005 4.65856e-005 -8.18505e-006
43
root  -5.97096 38.0588 -5.83868 170.284 -63.9431 -171.334
RightUpLeg  -27.2082 -16.9826 4.38249
RightLeg  27.6463 0.827005 0.235862
RightFoot  -0.395848 -0.0654488 0.658469
RightToes  0.00048216 0.542163 -0.142577
Spine  18.0073 -4.84684 4.92339
Spine1  5.22744 -5.85504 6.38628
HEad  4.54889 14.9588 -11.8186
LeftShoulder1  6.3543 -10.2054 -40.0862
LeftArm  4.1006 -3.76258 -41.2116
LeftForeArm  35.7975 -42.4264 -7.8568
LeftHand  -0.25398 0.0180481 5.50724
RightShoulder  4.33353 8.30481 30.7462
RightArm  -14.7412 -19.859 35.2695
RightForeArm  5.13856 15.4831 4.89183
RightHand  -0.952031 2.25131 -14.648
LeftUpLeg  19.9162 14.9111 13.7777
LeftLeg  25.3019 12.0503 6.68982
LeftFoot  -11.4025 -0.000382223 -22.0504
LeftToes  1.06243e-005 4.65856e-005 -8.18505e-006
